<svg width="322" height="147" viewBox="0 0 322 147" fill="none" xmlns="http://www.w3.org/2000/svg">
<path d="M0 62.2577L13.4167 62.9777C26.8333 63.7531 53.6667 65.1932 80.5 70.0119C107.333 74.8305 134.167 82.9171 161 71.6735C187.833 60.4299 214.667 29.7454 241.5 14.6247C268.333 -0.495988 295.167 -0.163658 308.583 0.0578905L322 0.224045V147H308.583C295.167 147 268.333 147 241.5 147C214.667 147 187.833 147 161 147C134.167 147 107.333 147 80.5 147C53.6667 147 26.8333 147 13.4167 147H0V62.2577Z" fill="#C0FFCF"/>
<path d="M0 30.9474L13.4167 44.617C26.8333 58.2867 53.6667 85.626 80.5 93.5489C107.333 101.416 134.167 89.9222 161 87.1325C187.833 84.3428 214.667 90.257 241.5 93.9952C268.333 97.7334 295.167 99.1841 308.583 99.9652L322 100.691V147H308.583C295.167 147 268.333 147 241.5 147C214.667 147 187.833 147 161 147C134.167 147 107.333 147 80.5 147C53.6667 147 26.8333 147 13.4167 147H0V30.9474Z" fill="#84DBA5"/>
<path d="M0 80.7422L13.4167 88.7717C26.8333 96.8574 53.6667 112.917 80.5 111.737C107.333 110.502 134.167 91.9723 161 81.5845C187.833 71.1966 214.667 68.9506 241.5 69.7928C268.333 70.6351 295.167 74.5656 308.583 76.5309L322 78.4962V147H308.583C295.167 147 268.333 147 241.5 147C214.667 147 187.833 147 161 147C134.167 147 107.333 147 80.5 147C53.6667 147 26.8333 147 13.4167 147H0V80.7422Z" fill="#3BB77E"/>
</svg>
